<svg id="Capa_1" data-name="Capa 1" xmlns="http://www.w3.org/2000/svg" xmlns:xlink="http://www.w3.org/1999/xlink" viewBox="0 0 792 612"><defs><style>.cls-1,.cls-10,.cls-11,.cls-13,.cls-14,.cls-15,.cls-16,.cls-17,.cls-18,.cls-19,.cls-20,.cls-21,.cls-22,.cls-23,.cls-24,.cls-25,.cls-26,.cls-28,.cls-29,.cls-6,.cls-7{stroke-miterlimit:10;}.cls-1,.cls-10,.cls-11,.cls-13,.cls-14,.cls-15,.cls-6,.cls-7{stroke-width:0.75px;}.cls-1{fill:url(#Degradado_sin_nombre_192);stroke:url(#Degradado_sin_nombre_183);}.cls-2{fill:url(#Degradado_sin_nombre_192-2);}.cls-3{fill:url(#Degradado_sin_nombre_183-2);}.cls-4{fill:url(#Degradado_sin_nombre_192-3);}.cls-5{fill:url(#Degradado_sin_nombre_183-3);}.cls-6{fill:url(#Degradado_sin_nombre_192-4);stroke:url(#Degradado_sin_nombre_183-4);}.cls-7{fill:url(#Degradado_sin_nombre_192-5);stroke:url(#Degradado_sin_nombre_183-5);}.cls-8{fill:url(#Degradado_sin_nombre_192-6);}.cls-9{fill:url(#Degradado_sin_nombre_183-6);}.cls-10{fill:url(#Degradado_sin_nombre_192-7);stroke:url(#Degradado_sin_nombre_183-7);}.cls-11{fill:url(#Degradado_sin_nombre_192-8);stroke:url(#Degradado_sin_nombre_183-8);}.cls-12{fill:#5d2771;}.cls-13,.cls-14,.cls-15{stroke:#bc9800;}.cls-13{fill:url(#Degradado_sin_nombre_95);}.cls-14{fill:url(#Degradado_sin_nombre_95-2);}.cls-15{fill:url(#Degradado_sin_nombre_95-3);}.cls-16,.cls-19,.cls-27{fill:#1d1612;}.cls-16,.cls-19{stroke:#1d1612;}.cls-16,.cls-17,.cls-18{stroke-width:0.25px;}.cls-17{fill:url(#Degradado_sin_nombre_7);stroke:url(#linear-gradient);}.cls-18{fill:url(#Degradado_sin_nombre_7-2);stroke:url(#linear-gradient-2);}.cls-19,.cls-20,.cls-21,.cls-22,.cls-23,.cls-24,.cls-25,.cls-26,.cls-28,.cls-29{stroke-width:0.5px;}.cls-20{fill:url(#Degradado_sin_nombre_92);stroke:url(#Degradado_sin_nombre_182);}.cls-21{fill:url(#Degradado_sin_nombre_92-2);stroke:url(#Degradado_sin_nombre_182-2);}.cls-22{fill:url(#Degradado_sin_nombre_92-3);stroke:url(#Degradado_sin_nombre_182-3);}.cls-23{fill:url(#Degradado_sin_nombre_92-4);stroke:url(#Degradado_sin_nombre_182-4);}.cls-24{fill:url(#Degradado_sin_nombre_92-5);stroke:url(#Degradado_sin_nombre_182-5);}.cls-25{fill:url(#Degradado_sin_nombre_92-6);stroke:url(#Degradado_sin_nombre_182-6);}.cls-26{fill:url(#Degradado_sin_nombre_92-7);stroke:url(#Degradado_sin_nombre_182-7);}.cls-28{fill:url(#Degradado_sin_nombre_92-8);stroke:url(#Degradado_sin_nombre_182-8);}.cls-29{fill:url(#Degradado_sin_nombre_92-9);stroke:url(#Degradado_sin_nombre_182-9);}</style><linearGradient id="Degradado_sin_nombre_192" x1="337.05" y1="193.97" x2="418.31" y2="193.97" gradientUnits="userSpaceOnUse"><stop offset="0" stop-color="#090609"/><stop offset="0.08" stop-color="#282729"/><stop offset="0.21" stop-color="#565658"/><stop offset="0.32" stop-color="#727475"/><stop offset="0.37" stop-color="#7d7f80"/><stop offset="0.43" stop-color="#747576"/><stop offset="0.53" stop-color="#5b5b5c"/><stop offset="0.65" stop-color="#323232"/><stop offset="0.69" stop-color="#232222"/><stop offset="1" stop-color="#cfcfd2"/><stop offset="1" stop-color="#535354"/></linearGradient><linearGradient id="Degradado_sin_nombre_183" x1="336.29" y1="193.89" x2="418.82" y2="193.89" gradientUnits="userSpaceOnUse"><stop offset="0" stop-color="#535354"/><stop offset="0" stop-color="#cfcfd2"/><stop offset="0.31" stop-color="#232222"/><stop offset="0.35" stop-color="#323232"/><stop offset="0.47" stop-color="#5b5b5c"/><stop offset="0.57" stop-color="#747576"/><stop offset="0.63" stop-color="#7d7f80"/><stop offset="0.68" stop-color="#727475"/><stop offset="0.79" stop-color="#565658"/><stop offset="0.92" stop-color="#282729"/><stop offset="1" stop-color="#090609"/></linearGradient><linearGradient id="Degradado_sin_nombre_192-2" x1="253.96" y1="240.86" x2="300.44" y2="240.86" xlink:href="#Degradado_sin_nombre_192"/><linearGradient id="Degradado_sin_nombre_183-2" x1="253.48" y1="240.9" x2="300.75" y2="240.9" xlink:href="#Degradado_sin_nombre_183"/><linearGradient id="Degradado_sin_nombre_192-3" x1="258.47" y1="256.64" x2="442.84" y2="256.64" xlink:href="#Degradado_sin_nombre_192"/><linearGradient id="Degradado_sin_nombre_183-3" x1="257.94" y1="256.64" x2="443.02" y2="256.64" xlink:href="#Degradado_sin_nombre_183"/><linearGradient id="Degradado_sin_nombre_192-4" x1="402.99" y1="203.54" x2="482.69" y2="203.54" xlink:href="#Degradado_sin_nombre_192"/><linearGradient id="Degradado_sin_nombre_183-4" x1="401.8" y1="203.48" x2="483.25" y2="203.48" xlink:href="#Degradado_sin_nombre_183"/><linearGradient id="Degradado_sin_nombre_192-5" x1="271.11" y1="211.03" x2="341.12" y2="211.03" xlink:href="#Degradado_sin_nombre_192"/><linearGradient id="Degradado_sin_nombre_183-5" x1="269.5" y1="211.05" x2="341.96" y2="211.05" xlink:href="#Degradado_sin_nombre_183"/><linearGradient id="Degradado_sin_nombre_192-6" x1="254.1" y1="188.45" x2="528.59" y2="188.45" xlink:href="#Degradado_sin_nombre_192"/><linearGradient id="Degradado_sin_nombre_183-6" x1="252.98" y1="188.43" x2="528.98" y2="188.43" xlink:href="#Degradado_sin_nombre_183"/><linearGradient id="Degradado_sin_nombre_192-7" x1="435.25" y1="248.24" x2="528.59" y2="248.24" xlink:href="#Degradado_sin_nombre_192"/><linearGradient id="Degradado_sin_nombre_183-7" x1="435.2" y1="248.18" x2="528.97" y2="248.18" xlink:href="#Degradado_sin_nombre_183"/><linearGradient id="Degradado_sin_nombre_192-8" x1="284.63" y1="243.56" x2="528.59" y2="243.56" xlink:href="#Degradado_sin_nombre_192"/><linearGradient id="Degradado_sin_nombre_183-8" x1="284.43" y1="243.46" x2="528.97" y2="243.46" xlink:href="#Degradado_sin_nombre_183"/><linearGradient id="Degradado_sin_nombre_95" x1="391.24" y1="503.34" x2="391.24" y2="366.78" gradientUnits="userSpaceOnUse"><stop offset="0" stop-color="#9f7d34"/><stop offset="0.14" stop-color="#c5ab66"/><stop offset="0.24" stop-color="#ddc785"/><stop offset="0.5" stop-color="#faf8d7"/><stop offset="0.76" stop-color="#ddc785"/><stop offset="1" stop-color="#9f7d34"/></linearGradient><linearGradient id="Degradado_sin_nombre_95-2" x1="472.69" y1="258.43" x2="472.69" y2="120.4" xlink:href="#Degradado_sin_nombre_95"/><linearGradient id="Degradado_sin_nombre_95-3" x1="310.28" y1="258.43" x2="310.28" y2="120.6" xlink:href="#Degradado_sin_nombre_95"/><linearGradient id="Degradado_sin_nombre_7" x1="498.33" y1="377.22" x2="518.41" y2="377.22" gradientUnits="userSpaceOnUse"><stop offset="0" stop-color="#876929"/><stop offset="0.14" stop-color="#ac9458"/><stop offset="0.24" stop-color="#c5b177"/><stop offset="0.5" stop-color="#e6e5c5"/><stop offset="0.76" stop-color="#c5b177"/><stop offset="1" stop-color="#876929"/></linearGradient><linearGradient id="linear-gradient" x1="498.21" y1="377.22" x2="518.53" y2="377.22" gradientUnits="userSpaceOnUse"><stop offset="0" stop-color="#876929"/><stop offset="0.08" stop-color="#ac9458"/><stop offset="0.14" stop-color="#c5b177"/><stop offset="0.26" stop-color="#e6e5c5"/><stop offset="0.36" stop-color="#c5b177"/><stop offset="0.49" stop-color="#876929"/><stop offset="0.56" stop-color="#ac9458"/><stop offset="0.61" stop-color="#c5b177"/><stop offset="0.74" stop-color="#e6e5c5"/><stop offset="0.84" stop-color="#c5b177"/><stop offset="1" stop-color="#876929"/></linearGradient><linearGradient id="Degradado_sin_nombre_7-2" x1="263.67" y1="377.22" x2="283.74" y2="377.22" xlink:href="#Degradado_sin_nombre_7"/><linearGradient id="linear-gradient-2" x1="263.54" y1="377.22" x2="283.87" y2="377.22" xlink:href="#linear-gradient"/><linearGradient id="Degradado_sin_nombre_92" x1="242.77" y1="347.01" x2="242.77" y2="293.79" gradientUnits="userSpaceOnUse"><stop offset="0" stop-color="#401d52"/><stop offset="0.09" stop-color="#533061"/><stop offset="0.24" stop-color="#724e7a"/><stop offset="0.5" stop-color="#ab8daa"/><stop offset="0.76" stop-color="#724e7a"/><stop offset="1" stop-color="#401d52"/></linearGradient><linearGradient id="Degradado_sin_nombre_182" x1="215.05" y1="320.4" x2="270.49" y2="320.4" gradientUnits="userSpaceOnUse"><stop offset="0" stop-color="#4d1d69"/><stop offset="0.05" stop-color="#613179"/><stop offset="0.14" stop-color="#805092"/><stop offset="0.26" stop-color="#ac91bb"/><stop offset="0.36" stop-color="#805092"/><stop offset="0.49" stop-color="#4d1d69"/><stop offset="0.53" stop-color="#613179"/><stop offset="0.61" stop-color="#805092"/><stop offset="0.74" stop-color="#af93bd"/><stop offset="0.84" stop-color="#805092"/><stop offset="1" stop-color="#4d1d69"/></linearGradient><linearGradient id="Degradado_sin_nombre_92-2" x1="300.73" y1="347.02" x2="300.73" y2="294.82" xlink:href="#Degradado_sin_nombre_92"/><linearGradient id="Degradado_sin_nombre_182-2" x1="275.44" y1="320.92" x2="326.02" y2="320.92" xlink:href="#Degradado_sin_nombre_182"/><linearGradient id="Degradado_sin_nombre_92-3" x1="370.62" y1="358.86" x2="370.62" y2="293.82" xlink:href="#Degradado_sin_nombre_92"/><linearGradient id="Degradado_sin_nombre_182-3" x1="330.29" y1="326.34" x2="410.94" y2="326.34" xlink:href="#Degradado_sin_nombre_182"/><linearGradient id="Degradado_sin_nombre_92-4" x1="417.74" y1="347.01" x2="417.74" y2="294.82" xlink:href="#Degradado_sin_nombre_92"/><linearGradient id="Degradado_sin_nombre_182-4" x1="397.22" y1="320.91" x2="438.25" y2="320.91" xlink:href="#Degradado_sin_nombre_182"/><linearGradient id="Degradado_sin_nombre_92-5" x1="476.79" y1="359.24" x2="476.79" y2="294.8" xlink:href="#Degradado_sin_nombre_92"/><linearGradient id="Degradado_sin_nombre_182-5" x1="444.08" y1="327.02" x2="509.49" y2="327.02" xlink:href="#Degradado_sin_nombre_182"/><linearGradient id="Degradado_sin_nombre_92-6" x1="511.84" y1="345.99" x2="511.84" y2="293.49" xlink:href="#Degradado_sin_nombre_92"/><linearGradient id="Degradado_sin_nombre_182-6" x1="491.75" y1="319.68" x2="532.04" y2="319.68" xlink:href="#Degradado_sin_nombre_182"/><linearGradient id="Degradado_sin_nombre_92-7" x1="552.31" y1="352.86" x2="552.31" y2="293.79" xlink:href="#Degradado_sin_nombre_92"/><linearGradient id="Degradado_sin_nombre_182-7" x1="534.82" y1="323.33" x2="569.8" y2="323.33" xlink:href="#Degradado_sin_nombre_182"/><linearGradient id="Degradado_sin_nombre_92-8" x1="344.25" y1="376.67" x2="351.75" y2="376.67" xlink:href="#Degradado_sin_nombre_92"/><linearGradient id="Degradado_sin_nombre_182-8" x1="344" y1="376.67" x2="352" y2="376.67" xlink:href="#Degradado_sin_nombre_182"/><linearGradient id="Degradado_sin_nombre_92-9" x1="414.58" y1="376.67" x2="422.08" y2="376.67" xlink:href="#Degradado_sin_nombre_92"/><linearGradient id="Degradado_sin_nombre_182-9" x1="414.33" y1="376.67" x2="422.33" y2="376.67" xlink:href="#Degradado_sin_nombre_182"/></defs><title>LOGO IMPRESIONES</title><path class="cls-1" d="M337.05,203.06l44.52,19.77,14.24.25,22.5-14.1-26.45-44.12Z"/><path class="cls-2" d="M300.44,232.7c-8.15,12.38-29.29,10-46.48,10.52.31,1.85.64,3.71,1,5.55C272.05,249.14,292.79,251.15,300.44,232.7Z"/><path class="cls-3" d="M300.27,233a3,3,0,0,0-.16.66,1,1,0,0,1-.28.5c-.35.39-.65.83-1,1.19a13.13,13.13,0,0,1-1.14,1.1,14.39,14.39,0,0,1-1.22,1,23.11,23.11,0,0,1-5.51,3,46.53,46.53,0,0,1-12.19,2.59c-8.27.79-16.54.32-24.77.53l.39-.46,1,5.54-.36-.3c1.06.8,2.16.12,3.24.1s2.16,0,3.24.05c2.16,0,4.32.07,6.47,0a69.46,69.46,0,0,0,12.81-1.18,28.8,28.8,0,0,0,11.67-4.88,22.64,22.64,0,0,0,4.51-4.45,26,26,0,0,0,1.75-2.66c.24-.45.53-1,.73-1.37a1.52,1.52,0,0,1,.35-.46A3.55,3.55,0,0,0,300.27,233Zm.35-.66c-.07.27-.1.56-.16.91a5.51,5.51,0,0,1-.32,1c-.26.58-.51,1-.77,1.51a26,26,0,0,1-1.77,2.77,22.87,22.87,0,0,1-4.63,4.69,29.44,29.44,0,0,1-12,5.06,68.27,68.27,0,0,1-13,1.1c-2.17,0-4.34,0-6.5-.1-1.08,0-2.16-.05-3.24-.11s-2.14-.82-3.24-.07l-.27.18-.09-.48-1-5.56-.09-.45.47,0c4.13-.13,8.26-.11,12.38-.16s8.23-.13,12.32-.51a47,47,0,0,0,12-2.5,22.25,22.25,0,0,0,5.34-2.84,10.68,10.68,0,0,0,1.19-.94c.39-.31.74-.68,1.1-1s.66-.76,1-1.13a7.21,7.21,0,0,1,.64-.74C300.14,232.72,300.41,232.54,300.62,232.37Z"/><path class="cls-4" d="M258.47,261.09c.28.72.57,1.45.88,2.17,10.74,2,25.52-.33,37,.32,55-6.22,115.8-14.14,146.47-4.1C403.18,238.87,320,254.48,258.47,261.09Z"/><path class="cls-5" d="M258.79,261.28a16.37,16.37,0,0,1,.91,1.83l-.28-.23a57.21,57.21,0,0,0,9.16.8c3.08.05,6.16,0,9.25-.17,6.16-.25,12.35-.69,18.57-.38h-.08q18.3-2.11,36.61-4.11c12.21-1.31,24.43-2.51,36.68-3.41s24.54-1.46,36.84-1.28c3.07.12,6.15.17,9.22.35l4.6.35,2.3.17,2.29.28,4.58.58c1.52.21,3,.55,4.55.82a89.74,89.74,0,0,1,9,2.24l-.29.69-2.62-1.24c-.43-.21-.86-.42-1.31-.62l-1.34-.53a7.13,7.13,0,0,1-1.32-.6,7.08,7.08,0,0,0-1.25-.82c-.92-.3-1.85-.59-2.79-.84-3.78-.89-7.54-1.8-11.33-2.59a168.66,168.66,0,0,0-23.08-2.65,368.54,368.54,0,0,0-46.51,1.14c-15.48,1.21-30.91,3-46.32,4.9l-23.13,2.83-11.58,1.38-5.79.66C262.48,261,260.68,261.16,258.79,261.28Zm-.64-.39,46.53-5.84c15.43-1.87,30.87-3.65,46.38-4.84a366.15,366.15,0,0,1,46.61-1.07,167.57,167.57,0,0,1,23.19,2.69c1.9.39,3.81.82,5.7,1.28.94.27,1.87.56,2.79.88l1.38.47,1.36.55c.9.36,1.82.68,2.74,1a7.82,7.82,0,0,0,1.46.25,8.12,8.12,0,0,1,1.39.47l1.36.54,1.33.62,2.65,1.26-.3.7a87.2,87.2,0,0,0-8.88-2.2c-1.51-.27-3-.61-4.52-.82l-4.55-.56-2.28-.28-2.29-.17-4.58-.34c-3.06-.17-6.12-.22-9.18-.33-12.26-.17-24.53.42-36.76,1.32s-24.45,2.13-36.66,3.45L296.42,264h-.07c-6.14-.33-12.31.09-18.49.31-3.09.12-6.19.2-9.29.14a57.92,57.92,0,0,1-9.29-.84l-.2,0-.08-.18A23.35,23.35,0,0,1,258.15,260.89Z"/><path class="cls-6" d="M459.36,223.66l23.33-15-21.06-25.27L403,223.16C423.34,223.49,442.72,223.83,459.36,223.66Z"/><path class="cls-7" d="M271.11,225.25c20.58-2,44.88-2.67,70-2.67l-23-25.77Z"/><path class="cls-8" d="M528.59,212.34a71.19,71.19,0,0,0-8.55-7.52l-57.93-42.21-20.47,16.77L392.22,142.1l-60.2,47-14.12-12L258.78,228.5l59.12-36.28L333,202.06l58.88-42.45,51.94,31.61,18.07-12,43.8,28.27c52.42,33.8-155.06,8-249.25,21.68-.78,1.46-1,2.78-2.32,4.19C345.35,223,498.19,244.49,528.59,229Z"/><path class="cls-9" d="M528.24,212.47c-.13-.11-.24-.21-.37-.34l-.45-.46-.92-.9c-.62-.6-1.26-1.18-1.9-1.75q-2-1.7-4-3.29c-2.75-2.07-5.58-4.08-8.37-6.13l-16.78-12.23-33.57-24.45.46,0-20.47,16.77-.23.19-.23-.18L392,142.4h.46l-60.2,47-.24.19-.23-.2-14.12-12h.49L259,228.79l-.44-.61,59.13-36.28.2-.12.2.13,15.07,9.84h-.42l58.88-42.45.2-.15.22.13L444,190.9h-.41l18.07-12,.21-.14.21.14L496.24,201c1.38,1,2.69,2.08,4.09,3.05s2.85,1.82,4.28,2.74c2.84,1.82,5.77,3.63,8,6.23A8.17,8.17,0,0,1,514,215.2a3.64,3.64,0,0,1,0,2.66,5,5,0,0,1-1.67,2.09,12.11,12.11,0,0,1-2.25,1.31,40.3,40.3,0,0,1-9.89,2.64A189.29,189.29,0,0,1,480,225.75c-6.78.31-13.56.45-20.34.52-13.56.12-27.13,0-40.68-.24-27.12-.39-54.23-1-81.34-.87-13.55.07-27.11.3-40.64.91s-27.07,1.59-40.47,3.51l.32-.22c-.37.68-.63,1.42-1,2.17a7.64,7.64,0,0,1-1.41,2.11l-.36-.72c11.42-1.3,22.88-2,34.35-2.45s23-.56,34.43-.51c22.95.1,45.89.88,68.82,1.77s45.85,2,68.78,2.47c11.46.23,22.93.33,34.38-.12,5.72-.22,11.44-.6,17.12-1.3,2.83-.37,5.66-.82,8.44-1.45a36.83,36.83,0,0,0,8-2.7l-.21.34Zm.7-.27L529,229v.24l-.21.11a38,38,0,0,1-8.23,2.77c-2.81.64-5.66,1.1-8.51,1.47-5.71.72-11.45,1.1-17.19,1.34-11.47.46-23,.37-34.43.16-23-.48-45.87-1.52-68.8-2.41s-45.85-1.69-68.78-1.8c-11.47,0-22.94.07-34.39.49s-22.91,1.15-34.29,2.43l-1.17.13.81-.85a6.85,6.85,0,0,0,1.25-1.88c.33-.7.6-1.47,1-2.21l.11-.19.21,0c13.45-1.93,27-2.88,40.55-3.51s27.12-.83,40.68-.89c27.12-.1,54.24.5,81.35.91,13.55.2,27.11.36,40.66.25,6.78-.07,13.55-.2,20.32-.51a186.67,186.67,0,0,0,20.2-1.83c1.66-.27,3.32-.59,4.95-1a27.74,27.74,0,0,0,4.78-1.53c1.48-.67,3-1.54,3.68-3a3.12,3.12,0,0,0,0-2.31,7.7,7.7,0,0,0-1.2-2.14,32.41,32.41,0,0,0-7.8-6.4c-1.42-.92-2.82-1.88-4.26-2.77s-3-1.61-4.45-2.47l-34.19-22h.41l-18.07,12-.2.13-.2-.12-51.94-31.61h.41L333.2,202.37l-.21.15-.22-.14-15.07-9.85h.4L259,228.82l-.44-.6,59.13-51.38.24-.21.25.21,14.12,12h-.48l60.2-47,.23-.18.23.18,49.42,37.28h-.46l20.47-16.77.22-.18.23.17,33.57,24.46L512.69,199c2.79,2.05,5.61,4.05,8.38,6.14,1.37,1.07,2.72,2.17,4,3.32.65.58,1.3,1.16,1.93,1.77l.93.91.46.47C528.58,211.78,528.77,212,528.94,212.2Z"/><path class="cls-10" d="M528.59,242.82c-16.54,4.21-49.37,10.47-93.34,8.72,0,0,55.71,7.76,93.34-6.49Z"/><path class="cls-11" d="M528.59,232.76c-41.25,16.33-194-10.68-244,21.6,49.39-21.1,200.92-.6,244-16.61Z"/><path class="cls-12" d="M229.59,366.46h22.73c1.09,8.94,9.6,55,70.73,89.24,1.56,1.14,20.13,14.38,67.4,35.45l.65-1.47.66,1.47c46.79-20.86,66.24-34.43,67.66-35.45,61.14-34.24,69.65-80.3,70.74-89.24h23.53v-3.22H229.59Zm228.18,86.47-.16.11c-.19.13-19,13.62-66.51,34.87-47.53-21.24-66-34.73-66.22-34.87l-.17-.11c-59.27-33.16-68-77.35-69.14-86.47H526.91C525.73,375.58,517,419.77,457.77,452.93Z"/><path class="cls-13" d="M532.56,368.16c0,.52-3.66,53.13-72.2,91.48l-.23.16c-.2.14-20,14.25-69,36.23-49.16-22-68.54-36.08-68.81-36.27l-.27-.17c-68.42-38.28-72.08-90.91-72.11-91.43l-.08-1.38-6.6,0,.07,1.66c0,.56,3.47,56.51,75.32,96.8,2.44,1.77,22.14,15.57,71.13,37.41l1.16.52.06.14.13-.06.12.06.06-.14,1.16-.52c48.48-21.61,68.9-35.63,71.4-37.4C535.78,425,539.15,369,539.18,368.47l.07-1.67-6.6,0Z"/><path class="cls-14" d="M539.86,169.1C538,167.22,496.5,126,412.37,120.4l-7.78,6c79.7,3.26,123,40.11,129.75,46.3v85.68h6.45V170Z"/><path class="cls-15" d="M371.18,120.6c-82.65,6.34-126.5,46.56-128.47,48.41l-1,1v88.46h6.45V172.82c7.23-6.18,52.61-42.18,130.74-46.23Z"/><path class="cls-12" d="M529.5,263.27v-87l-.23-.24c-.43-.43-42.28-42-125.18-45.45l.38,1.63c78.77,3.4,120,41.42,123.42,44.73v86.29H254.59V177c3.69-3.3,47-40.38,124.19-44.6l.38-1.63c-81.26,4.29-125.47,44.85-125.93,45.28l-.26.24v87H229.59v3.22h324.1v-3.22Z"/><polygon class="cls-12" points="391.64 107.17 395.74 118.18 407.8 118.91 398.82 125.89 401.63 137.9 391.64 130.86 381.65 137.9 384.46 125.89 375.48 118.91 387.54 118.18 391.64 107.17"/><path class="cls-16" d="M294.86,412.48h.33l5.54,6.95v-6.95h.35v7.57h-.29l-5.58-7v7h-.35Z"/><path class="cls-16" d="M307.43,417.79v-3.18h.34v3.13a1.88,1.88,0,0,0,2,2.12,2.08,2.08,0,0,0,2-2.18v-3.07h.35v5.44h-.35v-1.29a2.18,2.18,0,0,1-2.09,1.42A2.16,2.16,0,0,1,307.43,417.79Z"/><path class="cls-16" d="M318.08,417.33v0a2.66,2.66,0,0,1,2.6-2.83,2.6,2.6,0,0,1,2.5,2.86v.12h-4.73a2.36,2.36,0,0,0,2.34,2.4,2.48,2.48,0,0,0,2-1l.26.21a2.74,2.74,0,0,1-2.23,1.12A2.69,2.69,0,0,1,318.08,417.33Zm4.72-.18a2.23,2.23,0,0,0-2.14-2.35,2.3,2.3,0,0,0-2.21,2.35Z"/><path class="cls-16" d="M328.25,414.61h.4l2.24,5.07,2.25-5.07h.37L331,420.1h-.28Z"/><path class="cls-16" d="M338.57,417.35v0a2.81,2.81,0,0,1,2.84-2.85,2.77,2.77,0,0,1,2.81,2.83v0a2.83,2.83,0,1,1-5.65,0Zm5.28,0v0a2.47,2.47,0,0,0-2.47-2.52,2.43,2.43,0,0,0-2.43,2.52v0a2.45,2.45,0,1,0,4.9,0Z"/><path class="cls-16" d="M357.38,416.29v0a3.79,3.79,0,0,1,3.74-3.91,3.82,3.82,0,0,1,2.91,1.2l-.26.27a3.54,3.54,0,0,0-2.66-1.14,3.43,3.43,0,0,0-3.35,3.57v0a3.44,3.44,0,0,0,3.36,3.57,3.63,3.63,0,0,0,2.7-1.21l.26.25a4,4,0,0,1-3,1.29A3.75,3.75,0,0,1,357.38,416.29Z"/><path class="cls-16" d="M369.37,418.52v0c0-1.14,1-1.75,2.41-1.75a6.39,6.39,0,0,1,2,.3v-.37a1.71,1.71,0,0,0-2-1.84,3.84,3.84,0,0,0-1.77.46l-.13-.31a4.26,4.26,0,0,1,1.92-.47,2.34,2.34,0,0,1,1.73.59,2.14,2.14,0,0,1,.54,1.55v3.39h-.34v-1.13a2.45,2.45,0,0,1-2.29,1.26C370.39,420.18,369.37,419.62,369.37,418.52Zm4.37-.48v-.67a6.28,6.28,0,0,0-2-.3c-1.2,0-2,.51-2,1.41v0c0,.89.81,1.36,1.72,1.36A2.07,2.07,0,0,0,373.74,418Z"/><path class="cls-16" d="M379.79,419.35l.21-.27a3.31,3.31,0,0,0,2,.75c.88,0,1.56-.47,1.56-1.14v0c0-.77-.82-1-1.66-1.23-1-.29-1.89-.57-1.89-1.48v0c0-.81.75-1.42,1.86-1.42a3.5,3.5,0,0,1,1.91.6l-.19.3a3.09,3.09,0,0,0-1.73-.58c-.9,0-1.49.47-1.49,1.07v0c0,.69.76.93,1.65,1.18s1.89.59,1.89,1.54v0c0,.9-.84,1.49-1.93,1.49A3.59,3.59,0,0,1,379.79,419.35Z"/><path class="cls-16" d="M389.5,418.52v0c0-1.14,1-1.75,2.41-1.75a6.39,6.39,0,0,1,1.95.3v-.37a1.71,1.71,0,0,0-1.95-1.84,3.84,3.84,0,0,0-1.77.46L390,415a4.26,4.26,0,0,1,1.92-.47,2.34,2.34,0,0,1,1.73.59,2.14,2.14,0,0,1,.54,1.55v3.39h-.34v-1.13a2.45,2.45,0,0,1-2.3,1.26C390.51,420.18,389.5,419.62,389.5,418.52Zm4.37-.48v-.67a6.28,6.28,0,0,0-2-.3c-1.2,0-2,.51-2,1.41v0c0,.89.81,1.36,1.72,1.36A2.07,2.07,0,0,0,393.87,418Z"/><path class="cls-16" d="M399.92,419.35l.21-.27a3.31,3.31,0,0,0,2,.75c.88,0,1.56-.47,1.56-1.14v0c0-.77-.83-1-1.66-1.23-1-.29-1.89-.57-1.89-1.48v0c0-.81.75-1.42,1.86-1.42a3.5,3.5,0,0,1,1.91.6l-.19.3a3.09,3.09,0,0,0-1.73-.58c-.9,0-1.49.47-1.49,1.07v0c0,.69.76.93,1.65,1.18s1.89.59,1.89,1.54v0c0,.9-.84,1.49-1.93,1.49A3.59,3.59,0,0,1,399.92,419.35Z"/><path class="cls-16" d="M417.3,416.29v0a3.77,3.77,0,0,1,3.75-3.91,3.82,3.82,0,0,1,2.68,1l-.24.28a3.54,3.54,0,0,0-2.47-.93,3.42,3.42,0,0,0-3.34,3.57v0a3.35,3.35,0,0,0,3.4,3.58,4.12,4.12,0,0,0,2.58-1v-2.33H421v-.36h3V419a4.44,4.44,0,0,1-2.95,1.15A3.67,3.67,0,0,1,417.3,416.29Z"/><path class="cls-16" d="M430.29,414.61h.34v1.66A2.47,2.47,0,0,1,433,414.5v.35h-.06a2.48,2.48,0,0,0-2.26,2.62v2.58h-.34Z"/><path class="cls-16" d="M437.79,418.52v0c0-1.14,1-1.75,2.41-1.75a6.39,6.39,0,0,1,1.95.3v-.37a1.71,1.71,0,0,0-1.95-1.84,3.84,3.84,0,0,0-1.77.46l-.13-.31a4.26,4.26,0,0,1,1.92-.47,2.34,2.34,0,0,1,1.73.59,2.14,2.14,0,0,1,.54,1.55v3.39h-.34v-1.13a2.45,2.45,0,0,1-2.3,1.26C438.81,420.18,437.79,419.62,437.79,418.52Zm4.37-.48v-.67a6.28,6.28,0,0,0-2-.3c-1.2,0-2,.51-2,1.41v0c0,.89.81,1.36,1.72,1.36A2.07,2.07,0,0,0,442.16,418Z"/><path class="cls-16" d="M448.72,414.61h.34v1.29a2.21,2.21,0,0,1,2.1-1.42,2.16,2.16,0,0,1,2.25,2.39v3.18h-.35v-3.13a1.88,1.88,0,0,0-1.94-2.12,2.09,2.09,0,0,0-2.06,2.18v3.07h-.34Z"/><path class="cls-16" d="M459.28,417.34v0a2.72,2.72,0,0,1,2.69-2.84,2.53,2.53,0,0,1,2.41,1.61v-3.93h.35v7.89h-.35v-1.5a2.55,2.55,0,0,1-2.41,1.63A2.72,2.72,0,0,1,459.28,417.34Zm5.12,0v0a2.44,2.44,0,0,0-2.4-2.51,2.34,2.34,0,0,0-2.35,2.5v0a2.38,2.38,0,0,0,2.35,2.52A2.43,2.43,0,0,0,464.4,417.34Z"/><path class="cls-16" d="M470.68,417.33v0a2.67,2.67,0,0,1,2.61-2.83,2.6,2.6,0,0,1,2.5,2.86v.12h-4.73a2.36,2.36,0,0,0,2.34,2.4,2.48,2.48,0,0,0,2-1l.26.21a2.74,2.74,0,0,1-2.23,1.12A2.7,2.7,0,0,1,470.68,417.33Zm4.73-.18a2.23,2.23,0,0,0-2.14-2.35,2.3,2.3,0,0,0-2.21,2.35Z"/><path class="cls-16" d="M481.18,419.35l.21-.27a3.31,3.31,0,0,0,2,.75c.88,0,1.56-.47,1.56-1.14v0c0-.77-.82-1-1.66-1.23-1-.29-1.89-.57-1.89-1.48v0c0-.81.75-1.42,1.86-1.42a3.5,3.5,0,0,1,1.91.6l-.19.3a3.09,3.09,0,0,0-1.73-.58c-.9,0-1.49.47-1.49,1.07v0c0,.69.76.93,1.65,1.18s1.89.59,1.89,1.54v0c0,.9-.84,1.49-1.93,1.49A3.59,3.59,0,0,1,481.18,419.35Z"/><rect class="cls-17" x="498.33" y="376.41" width="20.08" height="1.61"/><rect class="cls-18" x="263.67" y="376.41" width="20.08" height="1.61"/><path class="cls-19" d="M232.11,281.19v0a5.11,5.11,0,0,1,5-5.27,5.19,5.19,0,0,1,3.91,1.62l-.35.36a4.81,4.81,0,0,0-3.58-1.52,4.61,4.61,0,0,0-4.51,4.8v0a4.63,4.63,0,0,0,4.53,4.8,4.86,4.86,0,0,0,3.62-1.63l.35.34a5.39,5.39,0,0,1-4,1.74A5.05,5.05,0,0,1,232.11,281.19Z"/><path class="cls-19" d="M254.1,281.18v0a5.09,5.09,0,1,1,10.18,0s0,0,0,0a5.09,5.09,0,1,1-10.18,0Zm9.67,0v0a4.65,4.65,0,0,0-4.59-4.81,4.6,4.6,0,0,0-4.57,4.78v0a4.65,4.65,0,0,0,4.6,4.82A4.6,4.6,0,0,0,263.77,281.19Z"/><path class="cls-19" d="M278.49,276.07h.5v9.74h6.14v.45h-6.64Z"/><path class="cls-19" d="M298.84,276.07H306v.45h-6.68v4.38h6v.45h-6v4.46h6.76v.45h-7.25Z"/><path class="cls-19" d="M319.53,281.19v0a5.09,5.09,0,0,1,5-5.27,5.16,5.16,0,0,1,3.61,1.33l-.32.38a4.77,4.77,0,0,0-3.32-1.25,4.61,4.61,0,0,0-4.5,4.8v0a4.51,4.51,0,0,0,4.57,4.82,5.53,5.53,0,0,0,3.48-1.31v-3.13h-3.62v-.48h4.1v3.8a6,6,0,0,1-4,1.55A4.94,4.94,0,0,1,319.53,281.19Z"/><path class="cls-19" d="M343.09,276.07h.5v10.19h-.5Z"/><path class="cls-19" d="M357.91,281.18v0a5.09,5.09,0,1,1,10.17,0s0,0,0,0a5.09,5.09,0,1,1-10.17,0Zm9.67,0v0a4.65,4.65,0,0,0-4.59-4.81,4.6,4.6,0,0,0-4.57,4.78v0A4.65,4.65,0,0,0,363,286,4.6,4.6,0,0,0,367.58,281.19Z"/><path class="cls-19" d="M398.13,276.07h.46l7.45,9.34v-9.34h.48v10.19h-.39l-7.51-9.42v9.42h-.49Z"/><path class="cls-19" d="M425.09,276h.46l4.84,10.26h-.54l-1.38-3h-6.31l-1.39,3h-.51Zm3.16,6.84-2.94-6.26-2.93,6.26Z"/><path class="cls-19" d="M443.06,281.19v0a5.11,5.11,0,0,1,5-5.27,5.19,5.19,0,0,1,3.91,1.62l-.35.36a4.81,4.81,0,0,0-3.58-1.52,4.61,4.61,0,0,0-4.51,4.8v0a4.63,4.63,0,0,0,4.53,4.8,4.86,4.86,0,0,0,3.62-1.63l.35.34a5.39,5.39,0,0,1-4,1.74A5.05,5.05,0,0,1,443.06,281.19Z"/><path class="cls-19" d="M465.9,276.07h.49v10.19h-.49Z"/><path class="cls-19" d="M480.71,281.18v0a5.09,5.09,0,1,1,10.18,0s0,0,0,0a5.09,5.09,0,1,1-10.18,0Zm9.67,0v0a4.65,4.65,0,0,0-4.59-4.81,4.6,4.6,0,0,0-4.57,4.78v0a4.65,4.65,0,0,0,4.6,4.82A4.6,4.6,0,0,0,490.38,281.19Z"/><path class="cls-19" d="M505.1,276.07h.45l7.46,9.34v-9.34h.48v10.19h-.4l-7.51-9.42v9.42h-.48Z"/><path class="cls-19" d="M532.06,276h.46l4.83,10.26h-.53l-1.39-3h-6.3l-1.4,3h-.51Zm3.15,6.84-2.94-6.26-2.92,6.26Z"/><path class="cls-19" d="M551.09,276.07h.5v9.74h6.14v.45h-6.64Z"/><path class="cls-20" d="M270.22,318.58c.64,18.93-9.74,28.43-25.82,28.43-17,0-29.1-11.55-29.1-26.68s12-26.54,28.07-26.54c6.66,0,14.19,2,18.68,4.94l1.48,10.33h-.61C260.7,300.52,252,296,243.45,296c-13,0-22.66,10.38-22.66,24.2s9.57,24.63,24,24.63,24.71-9.72,24.73-26.23Z"/><path class="cls-21" d="M325.77,294.82v.73h-1.19a3.74,3.74,0,0,0-3.86,3.45v28.91c0,11.46-7.88,19.11-19.7,19.11-12.17,0-20.28-7.6-20.28-19V299.17a3.72,3.72,0,0,0-3.86-3.62h-1.19v-.73h14.84v.73h-1.19a3.71,3.71,0,0,0-3.85,3.51V327c0,10.65,6.21,17.75,15.52,17.75,9.77,0,16.28-6.72,16.29-16.8V299.07a3.72,3.72,0,0,0-3.86-3.52h-1.19v-.73Z"/><path class="cls-22" d="M391,337.1c2.13,13.64,9.5,21.17,19.67,20.73v.74c-14.93,2.19-23.21-8.34-24.91-20.8l-4.46-32.59L366.1,339.55a36.88,36.88,0,0,0-2.5,7.47h-.69L344,305.88l-3.26,36.3a3,3,0,0,0,2.85,3.12h1.14V346H330.54v-.73h1.17a5.2,5.2,0,0,0,5.3-4.41L341.65,301l.83-7.15h1.06l2.73,5.91,17.62,38.15,19.67-44.06h.67Z"/><path class="cls-23" d="M414,294.82c9,0,15.14,4.38,15.14,11.84,0,4.6-2.34,8.19-5.82,9.48,9.84,1.48,14.67,7.48,14.67,15,0,9.5-8.33,15.86-20.69,15.86-11.91,0-20.2-6-19.82-18.31l.8-.14c1.06,7.94,4.34,12.08,9,14.1V300.1a4.66,4.66,0,0,0-4.69-4.55h-.92v-.73ZM412.07,344a35.45,35.45,0,0,0,5.47.37c9.79,0,15-5.81,15-13.56,0-11.26-10.9-13.3-18-13.29l0-.69c4.39,0,9.14-2.54,9.14-10,0-6.8-3.87-9.65-10.66-9.64h-.94Z"/><path class="cls-24" d="M464.07,294.8c8.63,0,14.26,5.28,14.26,13.25,0,7.82-5.34,14.48-12.41,14.45,6.27,6.68,10.87,12.16,19.13,20.86,7.53,8,14.92,15.5,24.19,14.33v.73c-11.83,3.15-20.24-3.14-28.06-12.06-3.51-4-14.89-16.49-19.66-21.86-1.79-2-3.15-3.36-4.4-3.53v-.68a33.32,33.32,0,0,0,3.88,0c3.14-.25,9.58-.88,11.41-7.6a14.47,14.47,0,0,0,.44-4.39c-.22-6.21-3.07-11.11-9.07-11.15h-9.09v43.55a4.69,4.69,0,0,0,4.71,4.59h.9V346h-16v-.73h.94A4.68,4.68,0,0,0,450,340.7V300.14a4.69,4.69,0,0,0-4.69-4.59h-.92v-.75Z"/><path class="cls-25" d="M527.43,346H492v-.73h.93a4.68,4.68,0,0,0,4.68-4.59V299.73a4.52,4.52,0,0,0-4.66-4.19H492v-.72h14.78a31.76,31.76,0,0,0,8.72-1.33v9.23h-.74v-1.3a4.37,4.37,0,0,0-4.09-4.36h-8.33v22.61h13.89a3.61,3.61,0,0,0,3.54-3.61V315h.71v11.57h-.71v-1.08a3.61,3.61,0,0,0-3.46-3.6h-14v21.91H518c7.75,0,10.72-4,13-9.58h.73Z"/><path class="cls-26" d="M561.46,321.8c14.61,11.54,8.25,31.06-9.56,31.06-16.11,0-21.89-16.08-11.87-26.79l.65.51c-8,10.49-2.7,23.65,10,23.65,13.67,0,19-15.5,7.46-24.65L544.9,315.2a11.64,11.64,0,0,1-4.29-9.2c0-6,4.46-12.21,12.72-12.21a32.69,32.69,0,0,1,6.37.75h2.89l.16,9H562c-.08-4.89-4-7.52-8.49-7.52-5.26,0-8.84,3.73-8.84,8.55a8.14,8.14,0,0,0,3.19,6.59Z"/><path class="cls-27" d="M291,377.31l-.07.84a1.66,1.66,0,0,1-1.51.8,2,2,0,0,1,0-3.91,2.38,2.38,0,0,1,1.27.36l.1.76h0a1.29,1.29,0,0,0-1.34-1A1.58,1.58,0,0,0,288,377a1.6,1.6,0,0,0,1.51,1.81,1.44,1.44,0,0,0,1.53-1.48Z"/><path class="cls-27" d="M299,378.48a.54.54,0,0,0,.47.34h.05v.06h-1.21v-.06h0a.23.23,0,0,0,.21-.34l-.35-.91h-1.44l-.36.92a.22.22,0,0,0,.2.33h.05v.06h-1.08v-.06h.05a.54.54,0,0,0,.47-.34l1.22-2.89a2.83,2.83,0,0,0,.19-.55h.05Zm-.85-1.07-.64-1.73-.68,1.73Z"/><path class="cls-27" d="M306.61,378l-.32.87h-2.22v-.06h.06a.35.35,0,0,0,.35-.34v-3a.35.35,0,0,0-.35-.34h-.06v-.05h1.17v.05h-.07a.34.34,0,0,0-.34.34v3.2h.77a.92.92,0,0,0,.95-.7Z"/><path class="cls-27" d="M312.48,378.88h-1.17v-.06h.07a.34.34,0,0,0,.34-.34v-3a.34.34,0,0,0-.34-.33h-.07v-.05h1.17v.05h-.06a.35.35,0,0,0-.35.33v3a.35.35,0,0,0,.35.34h.06Z"/><path class="cls-27" d="M319.25,375.12a1.88,1.88,0,1,1,0,3.76h-1.82v-.06h.07a.34.34,0,0,0,.34-.34v-3a.33.33,0,0,0-.34-.31h-.07v-.05Zm-1.06,3.59h1.06a1.73,1.73,0,0,0,0-3.43h-1.06Z"/><path class="cls-27" d="M328.93,378.48a.53.53,0,0,0,.47.34h0v.06h-1.21v-.06h0c.14,0,.28-.12.2-.34l-.34-.91h-1.45l-.36.92a.23.23,0,0,0,.21.33h0v.06h-1.08v-.06h0a.54.54,0,0,0,.48-.34l1.21-2.89a2.73,2.73,0,0,0,.2-.55h.05Zm-.85-1.07-.65-1.73-.67,1.73Z"/><path class="cls-27" d="M335.83,375.12a1.88,1.88,0,1,1,0,3.76H334v-.06h.07a.35.35,0,0,0,.35-.34v-3a.33.33,0,0,0-.35-.31H334v-.05Zm-1.05,3.59h1.05a1.73,1.73,0,0,0,0-3.43h-1.05Z"/><path class="cls-27" d="M363.09,377.31l-.07.84a1.66,1.66,0,0,1-1.51.8,2,2,0,0,1,0-3.91,2.33,2.33,0,0,1,1.27.36l.11.76h0a1.29,1.29,0,0,0-1.34-1A1.58,1.58,0,0,0,360,377a1.6,1.6,0,0,0,1.51,1.81,1.44,1.44,0,0,0,1.53-1.48Z"/><path class="cls-27" d="M371,378.48a.53.53,0,0,0,.47.34h0v.06h-1.21v-.06h.05a.23.23,0,0,0,.21-.34l-.35-.91H368.8l-.36.92a.22.22,0,0,0,.2.33h.05v.06h-1.08v-.06h.05a.54.54,0,0,0,.47-.34l1.21-2.89a2.73,2.73,0,0,0,.2-.55h0Zm-.85-1.07-.64-1.73-.68,1.73Z"/><path class="cls-27" d="M378.65,378l-.31.87h-2.23v-.06h.06a.35.35,0,0,0,.35-.34v-3a.35.35,0,0,0-.35-.34h-.06v-.05h1.18v.05h-.07a.34.34,0,0,0-.34.34v3.2h.77a.92.92,0,0,0,1-.7Z"/><path class="cls-27" d="M384.53,378.88h-1.17v-.06h.07a.34.34,0,0,0,.34-.34v-3a.34.34,0,0,0-.34-.33h-.07v-.05h1.17v.05h-.07a.35.35,0,0,0-.34.33v3a.34.34,0,0,0,.34.34h.07Z"/><path class="cls-27" d="M391.3,375.12a1.88,1.88,0,1,1,0,3.76h-1.82v-.06h.07a.34.34,0,0,0,.34-.34v-3a.33.33,0,0,0-.34-.31h-.07v-.05Zm-1.06,3.59h1.06a1.73,1.73,0,0,0,0-3.43h-1.06Z"/><path class="cls-27" d="M400.55,378l-.31.87H398v-.06h.07a.35.35,0,0,0,.35-.34v-3a.33.33,0,0,0-.35-.31H398v-.05h1.56a2.59,2.59,0,0,0,.64-.1v.68h-.05v-.1a.32.32,0,0,0-.3-.32h-1.09v1.66h.9a.26.26,0,0,0,.26-.26v-.08H400v.85h-.05v-.08a.27.27,0,0,0-.25-.27h-.91v1.61h.76a.93.93,0,0,0,1-.7Z"/><path class="cls-27" d="M408.41,378.05l-.18.83h-2.81v-.05l2.25-3.56h-1.81a.33.33,0,0,0-.31.32v.1h-.06V375a2.47,2.47,0,0,0,.65.1h1.5a2.21,2.21,0,0,0,.57-.07v0l-2.3,3.62h1.71a.77.77,0,0,0,.73-.66Z"/><path class="cls-27" d="M432.7,378l-.31.87h-2.23v-.06h.07a.34.34,0,0,0,.34-.34v-3a.34.34,0,0,0-.34-.34h-.07v-.05h1.18v.05h-.06a.35.35,0,0,0-.35.34v3.2h.77a.93.93,0,0,0,1-.7Z"/><path class="cls-27" d="M438.58,378.88H437.4v-.06h.07a.35.35,0,0,0,.35-.34v-3a.35.35,0,0,0-.35-.33h-.07v-.05h1.18v.05h-.07a.34.34,0,0,0-.34.33v3a.34.34,0,0,0,.34.34h.07Z"/><path class="cls-27" d="M445.34,375.12a1.88,1.88,0,1,1,0,3.76h-1.82v-.06h.07a.35.35,0,0,0,.35-.34v-3a.33.33,0,0,0-.35-.31h-.06v-.05Zm-1,3.59h1a1.73,1.73,0,0,0,0-3.43h-1Z"/><path class="cls-27" d="M454.6,378l-.31.87h-2.23v-.06h.07a.34.34,0,0,0,.34-.34v-3a.33.33,0,0,0-.34-.31h-.07v-.05h1.57a2.77,2.77,0,0,0,.64-.1v.68h-.06v-.1a.32.32,0,0,0-.3-.32h-1.09v1.66h.91a.26.26,0,0,0,.26-.26v-.08H454v.85H454v-.08a.27.27,0,0,0-.26-.27h-.91v1.61h.77a.92.92,0,0,0,1-.7Z"/><path class="cls-27" d="M460.86,375.12a1,1,0,0,1,1.05,1,1,1,0,0,1-.91,1,1.24,1.24,0,0,1,.38.38s.46.66.67.89a1,1,0,0,0,.73.4v.06h-.29a1.15,1.15,0,0,1-.94-.48c-.06-.07-.67-.95-.71-1s-.3-.36-.49-.36V377h.28a.79.79,0,0,0,.84-.55,1.06,1.06,0,0,0,0-.32c0-.49-.26-.8-.66-.82s-.6,0-.67,0v3.2a.34.34,0,0,0,.34.34h.07v.06h-1.17v-.06h.07a.34.34,0,0,0,.34-.33v-3a.34.34,0,0,0-.34-.34h-.07v-.05Z"/><path class="cls-27" d="M470.23,378.48a.54.54,0,0,0,.48.34h0v.06h-1.21v-.06h0c.14,0,.28-.12.2-.34l-.34-.91H468l-.36.92a.23.23,0,0,0,.21.33h0v.06h-1.09v-.06h.05a.53.53,0,0,0,.47-.34l1.22-2.89a2.73,2.73,0,0,0,.2-.55h.05Zm-.84-1.07-.65-1.73-.67,1.73Z"/><path class="cls-27" d="M478.31,378.05l-.18.83h-2.81v-.05l2.26-3.56h-1.81a.33.33,0,0,0-.32.32v.1h-.05V375a2.38,2.38,0,0,0,.64.1h1.5a2.15,2.15,0,0,0,.57-.07v0l-2.29,3.62h1.71a.77.77,0,0,0,.73-.66Z"/><path class="cls-27" d="M486.8,377.13q-.27,0-.27.24v.89A1.92,1.92,0,0,1,485,379a2,2,0,0,1,0-3.91,2.29,2.29,0,0,1,1.3.36l.11.76h0a1.3,1.3,0,0,0-1.37-1c-.91,0-1.52.72-1.52,1.8a1.58,1.58,0,0,0,1.52,1.79,1.8,1.8,0,0,0,1.22-.47v-.95c0-.15-.11-.24-.28-.24h-.08v-.06h1.05v.06Z"/><path class="cls-27" d="M495.66,377a2.07,2.07,0,1,1-2.07-2A1.91,1.91,0,0,1,495.66,377Zm-.42,0a1.65,1.65,0,1,0-1.65,1.79A1.63,1.63,0,0,0,495.24,377Z"/><circle class="cls-28" cx="348" cy="376.67" r="3.75"/><circle class="cls-29" cx="418.33" cy="376.67" r="3.75"/></svg>